<?xml version="1.0" standalone="no"?>
<!DOCTYPE svg PUBLIC "-//W3C//DTD SVG 20010904//EN"
 "http://www.w3.org/TR/2001/REC-SVG-20010904/DTD/svg10.dtd">
<svg version="1.0" xmlns="http://www.w3.org/2000/svg"
 width="300.000000pt" height="300.000000pt" viewBox="0 0 300.000000 300.000000"
 preserveAspectRatio="xMidYMid meet">
<metadata>
Created by potrace 1.14, written by Peter Selinger 2001-2017
</metadata>
<g transform="translate(0.000000,300.000000) scale(0.100000,-0.100000)"
fill="#000000" stroke="none">
<path d="M62 2125 l0 -145 243 0 c185 0 244 -3 247 -12 2 -7 4 -289 3 -625 l0
-613 177 0 178 0 0 625 0 625 248 0 247 0 0 143 -1 142 -671 3 -671 2 0 -145z"/>
<path d="M1598 2263 c-2 -4 -4 -350 -4 -768 l1 -760 177 -3 178 -2 2 212 3
212 220 2 c257 1 346 17 474 84 151 79 239 194 269 350 13 65 6 233 -11 290
-42 136 -135 244 -269 310 -141 69 -170 73 -629 77 -224 3 -409 1 -411 -4z
m812 -309 c61 -28 107 -68 132 -118 18 -32 22 -59 23 -127 0 -78 -3 -90 -30
-135 -64 -103 -137 -127 -395 -128 l-185 -1 -3 269 -2 268 207 -4 c183 -3 213
-6 253 -24z"/>
</g>
</svg>
